<?xml version="1.0" encoding="utf-8"?>
<!-- Generator: Adobe Illustrator 16.0.0, SVG Export Plug-In . SVG Version: 6.00 Build 0)  -->
<!DOCTYPE svg PUBLIC "-//W3C//DTD SVG 1.1//EN" "http://www.w3.org/Graphics/SVG/1.1/DTD/svg11.dtd">
<svg version="1.1" id="Layer_1" xmlns="http://www.w3.org/2000/svg" xmlns:xlink="http://www.w3.org/1999/xlink" x="0px" y="0px"
	 width="768.187px" height="293.279px" viewBox="0 0 768.187 293.279" enable-background="new 0 0 768.187 293.279"
	 xml:space="preserve">
<g class="svg">
	<g>
		<path d="M332.138,187.417c1.398-0.814,2.098-2.132,2.098-3.95v-0.14c0-1.631-0.606-2.877-1.818-3.74
			c-1.213-0.862-2.96-1.294-5.244-1.294h-10.627v10.348h9.928C328.852,188.641,330.739,188.233,332.138,187.417z"/>
		<path d="M562.719,127.814c1.818-0.699,3.367-1.701,4.649-3.006c1.281-1.304,2.283-2.843,3.007-4.615
			c0.722-1.771,1.083-3.751,1.083-5.943v-0.14c0-2.144-0.361-4.125-1.083-5.943c-0.724-1.818-1.726-3.379-3.007-4.685
			c-1.282-1.304-2.831-2.318-4.649-3.041c-1.817-0.722-3.822-1.084-6.013-1.084h-8.32v29.505h8.32
			C558.896,128.863,560.901,128.513,562.719,127.814z"/>
		<path d="M335.074,199.023c-1.258-0.955-3.286-1.434-6.083-1.434h-12.445v10.768h12.795c2.377,0,4.241-0.431,5.593-1.294
			c1.351-0.861,2.027-2.202,2.027-4.02v-0.141C336.962,201.272,336.333,199.979,335.074,199.023z"/>
		<polygon points="327.663,102.225 321.161,118.096 334.166,118.096 		"/>
		<path d="M258.064,0v293.279h510.123V0H258.064z M588.867,89.64h10.768v48.941h-10.768V89.64z M537.619,89.64h19.087
			c3.821,0,7.329,0.618,10.522,1.853c3.192,1.235,5.943,2.948,8.25,5.139c2.308,2.191,4.09,4.766,5.349,7.726
			c1.259,2.96,1.888,6.165,1.888,9.614v0.14c0,3.45-0.629,6.666-1.888,9.648c-1.259,2.983-3.041,5.57-5.349,7.761
			c-2.307,2.191-5.058,3.916-8.25,5.174c-3.193,1.258-6.701,1.888-10.522,1.888h-19.087V89.64z M494.761,89.64h36.846v9.579h-26.219
			v9.928h23.072v9.579h-23.072v10.277h26.568v9.579h-37.195V89.64z M322.839,89.29h9.928l20.975,49.291h-11.256l-4.475-10.977
			h-20.695l-4.475,10.977h-10.977L322.839,89.29z M347.589,204.372c0,2.237-0.431,4.195-1.292,5.873s-2.094,3.076-3.7,4.194
			c-1.605,1.119-3.536,1.958-5.793,2.518s-4.758,0.839-7.503,0.839h-23.243v-48.941h22.682c5.629,0,9.887,1.445,12.772,4.335
			c2.233,2.237,3.349,5.011,3.349,8.32v0.14c0,1.398-0.173,2.634-0.521,3.705c-0.347,1.073-0.811,2.04-1.39,2.901
			c-0.579,0.863-1.25,1.62-2.014,2.272c-0.765,0.653-1.586,1.213-2.466,1.679c2.83,1.072,5.057,2.528,6.681,4.369
			c1.624,1.842,2.437,4.394,2.437,7.656V204.372z M394.502,196.472c0,3.729-0.502,6.969-1.503,9.718
			c-1.003,2.751-2.437,5.046-4.3,6.887c-1.865,1.842-4.125,3.217-6.782,4.125c-2.657,0.909-5.618,1.364-8.879,1.364
			c-6.572,0-11.746-1.818-15.521-5.454s-5.663-9.064-5.663-16.29v-27.967h10.767v27.687c0,4.01,0.932,7.027,2.796,9.055
			c1.864,2.027,4.451,3.041,7.761,3.041c3.309,0,5.896-0.979,7.761-2.937c1.864-1.957,2.797-4.894,2.797-8.81v-28.036h10.767
			V196.472z M393.244,134.316c-1.353,1.073-2.832,1.992-4.439,2.761c-1.608,0.77-3.368,1.353-5.279,1.748
			c-1.912,0.396-4.055,0.594-6.432,0.594c-3.59,0-6.922-0.653-9.998-1.958c-3.077-1.304-5.733-3.087-7.971-5.349
			c-2.237-2.26-3.985-4.929-5.244-8.005s-1.888-6.362-1.888-9.858v-0.14c0-3.496,0.629-6.77,1.888-9.823
			c1.258-3.052,3.006-5.733,5.244-8.041c2.237-2.307,4.917-4.125,8.041-5.453c3.122-1.329,6.572-1.993,10.348-1.993
			c2.283,0,4.37,0.187,6.257,0.559c1.888,0.374,3.601,0.886,5.139,1.539c1.538,0.653,2.96,1.445,4.265,2.377
			c1.305,0.933,2.518,1.958,3.636,3.076l-6.852,7.901c-1.912-1.724-3.857-3.077-5.838-4.055c-1.981-0.979-4.207-1.468-6.677-1.468
			c-2.052,0-3.951,0.396-5.698,1.188c-1.748,0.793-3.251,1.888-4.51,3.286c-1.258,1.398-2.237,3.018-2.937,4.859
			c-0.699,1.842-1.049,3.811-1.049,5.908v0.14c0,2.098,0.35,4.079,1.049,5.943c0.699,1.865,1.666,3.496,2.901,4.894
			c1.235,1.398,2.727,2.506,4.475,3.321c1.748,0.816,3.67,1.224,5.768,1.224c2.796,0,5.162-0.513,7.097-1.539
			c1.934-1.024,3.855-2.423,5.768-4.195l6.852,6.922C395.901,132.033,394.596,133.245,393.244,134.316z M436.871,203.323
			c0,2.424-0.44,4.579-1.32,6.467c-0.88,1.889-2.107,3.474-3.682,4.755c-1.575,1.282-3.454,2.261-5.637,2.937
			c-2.184,0.675-4.604,1.014-7.261,1.014c-3.729,0-7.388-0.642-10.977-1.923c-3.59-1.281-6.852-3.251-9.788-5.908l6.362-7.62
			c2.237,1.817,4.532,3.263,6.887,4.334c2.354,1.073,4.929,1.608,7.726,1.608c2.237,0,3.974-0.407,5.209-1.224
			c1.234-0.814,1.853-1.945,1.853-3.391v-0.14c0-0.699-0.129-1.316-0.386-1.854c-0.258-0.535-0.748-1.036-1.473-1.503
			c-0.724-0.465-1.729-0.932-3.014-1.398c-1.286-0.465-2.956-0.954-5.012-1.468c-2.478-0.605-4.721-1.281-6.73-2.027
			c-2.011-0.745-3.716-1.666-5.117-2.762c-1.403-1.095-2.489-2.458-3.26-4.091c-0.771-1.631-1.157-3.658-1.157-6.082v-0.141
			c0-2.237,0.416-4.252,1.25-6.047c0.833-1.794,2.002-3.345,3.508-4.649c1.505-1.305,3.302-2.308,5.392-3.007
			c2.089-0.699,4.394-1.049,6.91-1.049c3.589,0,6.887,0.536,9.894,1.608c3.006,1.072,5.768,2.61,8.284,4.614l-5.593,8.11
			c-2.191-1.491-4.335-2.668-6.433-3.531c-2.098-0.861-4.194-1.293-6.292-1.293s-3.671,0.408-4.72,1.224s-1.573,1.83-1.573,3.041
			v0.14c0,0.794,0.152,1.48,0.456,2.062c0.304,0.584,0.852,1.108,1.647,1.573c0.794,0.467,1.881,0.909,3.26,1.329
			c1.379,0.419,3.119,0.908,5.223,1.468c2.477,0.653,4.685,1.388,6.625,2.202c1.938,0.816,3.574,1.795,4.907,2.937
			c1.331,1.143,2.337,2.482,3.014,4.021c0.678,1.538,1.018,3.38,1.018,5.523V203.323z M439.528,134.316
			c-1.353,1.073-2.832,1.992-4.439,2.761c-1.608,0.77-3.368,1.353-5.279,1.748s-4.055,0.594-6.432,0.594
			c-3.59,0-6.922-0.653-9.998-1.958s-5.733-3.087-7.971-5.349c-2.237-2.26-3.985-4.929-5.243-8.005
			c-1.259-3.076-1.889-6.362-1.889-9.858v-0.14c0-3.496,0.63-6.77,1.889-9.823c1.258-3.052,3.006-5.733,5.243-8.041
			c2.237-2.307,4.917-4.125,8.04-5.453c3.123-1.329,6.572-1.993,10.348-1.993c2.283,0,4.37,0.187,6.258,0.559
			c1.888,0.374,3.601,0.886,5.139,1.539c1.538,0.653,2.96,1.445,4.265,2.377c1.305,0.933,2.518,1.958,3.636,3.076l-6.852,7.901
			c-1.912-1.724-3.857-3.077-5.838-4.055c-1.981-0.979-4.207-1.468-6.677-1.468c-2.052,0-3.95,0.396-5.698,1.188
			c-1.748,0.793-3.251,1.888-4.51,3.286c-1.259,1.398-2.237,3.018-2.937,4.859c-0.699,1.842-1.049,3.811-1.049,5.908v0.14
			c0,2.098,0.35,4.079,1.049,5.943c0.699,1.865,1.666,3.496,2.901,4.894c1.234,1.398,2.727,2.506,4.475,3.321
			c1.748,0.816,3.671,1.224,5.769,1.224c2.797,0,5.161-0.513,7.097-1.539c1.934-1.024,3.855-2.423,5.768-4.195l6.852,6.922
			C442.186,132.033,440.88,133.245,439.528,134.316z M453.512,217.796h-10.768v-48.941h10.768V217.796z M458.894,138.581h-10.767
			V89.64H470.5c6.198,0,10.953,1.655,14.263,4.964c2.797,2.796,4.195,6.526,4.195,11.187v0.14c0,3.962-0.968,7.19-2.901,9.684
			c-1.935,2.494-4.464,4.324-7.586,5.488l11.955,17.479h-12.585l-10.487-15.661h-0.14h-8.32V138.581z M505.318,217.796h-9.158
			l-23.702-31.112v31.112h-10.627v-48.941h9.928l22.933,30.134v-30.134h10.627V217.796z M550.274,217.796h-37.195v-48.941h36.846
			v9.578h-26.219v9.929h23.072v9.578h-23.072v10.278h26.568V217.796z M591.386,203.323c0,2.424-0.44,4.579-1.32,6.467
			c-0.88,1.889-2.107,3.474-3.682,4.755c-1.575,1.282-3.454,2.261-5.637,2.937c-2.184,0.675-4.604,1.014-7.261,1.014
			c-3.729,0-7.388-0.642-10.977-1.923c-3.59-1.281-6.852-3.251-9.788-5.908l6.362-7.62c2.237,1.817,4.532,3.263,6.887,4.334
			c2.354,1.073,4.929,1.608,7.726,1.608c2.237,0,3.974-0.407,5.209-1.224c1.234-0.814,1.853-1.945,1.853-3.391v-0.14
			c0-0.699-0.129-1.316-0.386-1.854c-0.258-0.535-0.748-1.036-1.473-1.503c-0.724-0.465-1.729-0.932-3.014-1.398
			c-1.286-0.465-2.956-0.954-5.012-1.468c-2.478-0.605-4.721-1.281-6.73-2.027c-2.011-0.745-3.716-1.666-5.117-2.762
			c-1.403-1.095-2.489-2.458-3.26-4.091c-0.771-1.631-1.157-3.658-1.157-6.082v-0.141c0-2.237,0.416-4.252,1.25-6.047
			c0.833-1.794,2.002-3.345,3.508-4.649c1.505-1.305,3.302-2.308,5.392-3.007c2.089-0.699,4.394-1.049,6.91-1.049
			c3.589,0,6.887,0.536,9.894,1.608c3.006,1.072,5.768,2.61,8.284,4.614l-5.593,8.11c-2.191-1.491-4.335-2.668-6.433-3.531
			c-2.098-0.861-4.194-1.293-6.292-1.293s-3.671,0.408-4.72,1.224s-1.573,1.83-1.573,3.041v0.14c0,0.794,0.152,1.48,0.456,2.062
			c0.304,0.584,0.852,1.108,1.647,1.573c0.794,0.467,1.881,0.909,3.26,1.329c1.379,0.419,3.119,0.908,5.223,1.468
			c2.477,0.653,4.685,1.388,6.625,2.202c1.938,0.816,3.574,1.795,4.907,2.937c1.331,1.143,2.337,2.482,3.014,4.021
			c0.678,1.538,1.018,3.38,1.018,5.523V203.323z M631.447,203.323c0,2.424-0.44,4.579-1.32,6.467
			c-0.88,1.889-2.107,3.474-3.682,4.755c-1.575,1.282-3.454,2.261-5.637,2.937c-2.184,0.675-4.604,1.014-7.261,1.014
			c-3.729,0-7.388-0.642-10.977-1.923c-3.59-1.281-6.852-3.251-9.788-5.908l6.362-7.62c2.237,1.817,4.532,3.263,6.887,4.334
			c2.354,1.073,4.929,1.608,7.726,1.608c2.237,0,3.974-0.407,5.209-1.224c1.234-0.814,1.853-1.945,1.853-3.391v-0.14
			c0-0.699-0.129-1.316-0.386-1.854c-0.258-0.535-0.748-1.036-1.473-1.503c-0.724-0.465-1.729-0.932-3.014-1.398
			c-1.286-0.465-2.956-0.954-5.012-1.468c-2.478-0.605-4.721-1.281-6.73-2.027c-2.011-0.745-3.716-1.666-5.117-2.762
			c-1.403-1.095-2.489-2.458-3.26-4.091c-0.771-1.631-1.157-3.658-1.157-6.082v-0.141c0-2.237,0.416-4.252,1.25-6.047
			c0.833-1.794,2.002-3.345,3.508-4.649c1.505-1.305,3.302-2.308,5.392-3.007c2.089-0.699,4.394-1.049,6.91-1.049
			c3.589,0,6.887,0.536,9.894,1.608c3.006,1.072,5.768,2.61,8.284,4.614l-5.593,8.11c-2.191-1.491-4.335-2.668-6.433-3.531
			c-2.098-0.861-4.194-1.293-6.292-1.293s-3.671,0.408-4.72,1.224s-1.573,1.83-1.573,3.041v0.14c0,0.794,0.152,1.48,0.456,2.062
			c0.304,0.584,0.852,1.108,1.647,1.573c0.794,0.467,1.881,0.909,3.26,1.329c1.379,0.419,3.119,0.908,5.223,1.468
			c2.477,0.653,4.685,1.388,6.625,2.202c1.938,0.816,3.574,1.795,4.907,2.937c1.331,1.143,2.337,2.482,3.014,4.021
			c0.678,1.538,1.018,3.38,1.018,5.523V203.323z M644.94,99.568h-14.893v39.013h-10.767V99.568h-14.893V89.64h40.552V99.568z
			 M686.47,138.581h-37.195V89.64h36.846v9.579h-26.219v9.928h23.072v9.579h-23.072v10.277h26.568V138.581z M737.229,114.11
			c0,3.45-0.629,6.666-1.888,9.648c-1.259,2.983-3.041,5.57-5.349,7.761c-2.307,2.191-5.058,3.916-8.25,5.174
			c-3.193,1.258-6.701,1.888-10.522,1.888h-19.087V89.64h19.087c3.821,0,7.329,0.618,10.522,1.853
			c3.192,1.235,5.943,2.948,8.25,5.139c2.308,2.191,4.09,4.766,5.349,7.726c1.259,2.96,1.888,6.165,1.888,9.614V114.11z"/>
		<path d="M475.919,111.523c1.421-1.258,2.132-2.937,2.132-5.034v-0.14c0-2.33-0.746-4.078-2.237-5.244
			c-1.492-1.165-3.565-1.748-6.223-1.748h-10.697v14.053h10.907C472.458,113.411,474.496,112.782,475.919,111.523z"/>
		<path d="M721.882,103.483c-1.282-1.304-2.831-2.318-4.649-3.041c-1.817-0.722-3.822-1.084-6.013-1.084h-8.32v29.505h8.32
			c2.19,0,4.195-0.35,6.013-1.049c1.818-0.699,3.367-1.701,4.649-3.006c1.281-1.304,2.283-2.843,3.007-4.615
			c0.722-1.771,1.083-3.751,1.083-5.943v-0.14c0-2.144-0.361-4.125-1.083-5.943C724.165,106.35,723.163,104.789,721.882,103.483z"/>
	</g>
	<g>
		<polygon points="175.494,177.854 80.058,177.854 76.601,189.257 102.028,189.257 106.888,205.002 148.693,205.002 
			153.526,189.257 178.961,189.257 		"/>
		<path d="M95.636,113.775c-3.542,4.877-4.96,10.842-4.024,16.784c0.957,5.953,4.169,11.178,9.039,14.712l22.84,16.592
			c1.221,0.895,2.022,2.196,2.258,3.689c0.237,1.482-0.118,2.98-1.002,4.205l3.444,2.49l12.061-16.653
			c2.822-3.886,4.308-8.478,4.308-13.195c0-1.194-0.102-2.394-0.294-3.596c-0.945-5.944-4.15-11.173-9.038-14.706l-22.834-16.602
			c-1.219-0.88-2.028-2.194-2.268-3.676c-0.033-0.302-0.06-0.605-0.06-0.902c0-1.185,0.364-2.33,1.072-3.292v-0.012l-3.431-2.489
			C107.707,97.13,95.636,113.775,95.636,113.775"/>
		<path d="M109.399,47.062c-4.094,5.638-6.243,12.293-6.243,19.144c0,1.729,0.144,3.473,0.418,5.21
			c1.375,8.634,6.035,16.209,13.109,21.342l28.703,20.788c3.788,2.745,6.291,6.804,7.029,11.438
			c0.146,0.924,0.219,1.863,0.219,2.785c0,3.669-1.147,7.237-3.341,10.261l2.739,1.998l22.623-31.266
			c5.136-7.07,7.202-15.719,5.827-24.349c-1.376-8.639-6.028-16.21-13.11-21.342L132.708,37.89
			c-2.178-1.588-3.615-3.923-4.036-6.588c-0.429-2.656,0.211-5.323,1.795-7.514l-2.751-1.989L109.399,47.062z"/>
		<path d="M50.754,214.529H76.9c6.436,0,11.509,1.767,14.73,4.976c2.577,2.585,3.86,5.719,3.86,9.577v0.168
			c0,6.356-3.387,9.894-7.402,12.147c6.52,2.493,10.535,6.278,10.535,13.836v0.162c0,10.296-8.37,15.449-21.077,15.449H50.754
			V214.529z M74.251,237.292c5.471,0,8.931-1.772,8.931-5.956v-0.156c0-3.707-2.894-5.791-8.131-5.791H62.826v11.903H74.251z
			 M77.546,259.978c5.472,0,8.768-1.926,8.768-6.104v-0.166c0-3.784-2.812-6.11-9.168-6.11h-14.32v12.381H77.546z"/>
		<path d="M104.011,214.529h26.145c6.446,0,11.518,1.767,14.729,4.976c2.569,2.585,3.86,5.719,3.86,9.577v0.168
			c0,6.356-3.377,9.894-7.4,12.147c6.51,2.493,10.534,6.278,10.534,13.836v0.162c0,10.296-8.359,15.449-21.078,15.449h-26.79
			V214.529z M127.506,237.292c5.472,0,8.932-1.772,8.932-5.956v-0.156c0-3.707-2.895-5.791-8.129-5.791H116.08v11.903H127.506z
			 M130.801,259.978c5.472,0,8.776-1.926,8.776-6.104v-0.166c0-3.784-2.82-6.11-9.176-6.11H116.08v12.381H130.801z"/>
		<path d="M157.276,214.529h26.147c6.436,0,11.498,1.767,14.73,4.976c2.565,2.585,3.85,5.719,3.85,9.577v0.168
			c0,6.356-3.378,9.894-7.402,12.147c6.518,2.493,10.542,6.278,10.542,13.836v0.162c0,10.296-8.365,15.449-21.073,15.449h-26.794
			V214.529z M180.761,237.292c5.476,0,8.933-1.772,8.933-5.956v-0.156c0-3.707-2.896-5.791-8.129-5.791h-12.226v11.903H180.761z
			 M184.07,259.978c5.461,0,8.766-1.926,8.766-6.104v-0.166c0-3.784-2.823-6.11-9.177-6.11h-14.32v12.381H184.07z"/>
		<g>
			<path d="M210.157,264.554c0,1.25-0.981,2.231-2.258,2.231c-1.264,0-2.272-0.981-2.272-2.231c0-1.224,1.008-2.204,2.272-2.204
				C209.176,262.35,210.157,263.33,210.157,264.554z M206.191,264.554c0,0.981,0.726,1.761,1.721,1.761
				c0.968,0,1.681-0.779,1.681-1.747c0-0.981-0.713-1.774-1.694-1.774C206.917,262.793,206.191,263.586,206.191,264.554z
				 M207.549,265.71h-0.511v-2.205c0.202-0.04,0.484-0.066,0.847-0.066c0.417,0,0.605,0.066,0.766,0.161
				c0.121,0.094,0.215,0.269,0.215,0.483c0,0.242-0.188,0.431-0.457,0.511v0.027c0.215,0.081,0.336,0.242,0.403,0.538
				c0.067,0.336,0.107,0.47,0.161,0.551h-0.551c-0.067-0.081-0.107-0.282-0.175-0.538c-0.04-0.241-0.175-0.35-0.457-0.35h-0.242
				V265.71z M207.562,264.46h0.242c0.282,0,0.511-0.095,0.511-0.323c0-0.201-0.148-0.336-0.471-0.336
				c-0.134,0-0.229,0.014-0.282,0.027V264.46z"/>
		</g>
	</g>
</g>
</svg>
